<svg xmlns="http://www.w3.org/2000/svg" xml:space="preserve" viewBox="0 0 220 100"><path fill="#fff" d="M59.768384.70429002c-4.525714 0-8.574811 1.42983728-12.14774 4.28817148-3.453834 2.858355-5.656079 6.5499855-6.608854 11.0756985L27.434656 80.023001c-1.310076 5.835789-.597246 10.54022 2.142008 14.113157 2.858347 3.453831 7.205322 5.18154 13.041107 5.18154h74.538999c1.82463-.132263 2.51983-.505357 3.11905-2.286024l1.71584-8.148968c-.19905-1.796067-.8149-2.651547-2.7034-3.142139H64.235235l3.037456-13.577134h55.332539c2.1212-.389794 2.61239-1.200739 3.69609-2.915007l11.17771-53.180266c.95278-4.525713.29952-8.2173435-1.96334-11.0756985-2.14374-2.8583342-5.48002-4.28817148-10.00573-4.28817148zM79.599106 14.28142h20.543334l-9.467634 43.947533H70.129387Zm138.402764-1.250099-52.70073 73.959674h32.23756c2.22974.726089 3.08564 1.85529 3.85808 4.067312l-1.26567 5.822093c-.75597 1.785947-1.49034 1.941756-3.2426 2.437208h-68.32382c-2.30177-.831542-2.53255-1.580388-3.17382-3.77722l1.85857-8.549393 52.70072-73.959674h-34.35532c-1.62674-.50428-1.99182-1.056447-2.02277-2.76805l1.79211-8.2437189c.38738-.8981503.83034-1.0113465 1.70135-1.31483658h70.27612c1.53674.80085528 2.02455 2.03428948 2.53984 3.68038668z" font-family="Aero" font-size="167.94311523" font-weight="400" letter-spacing="-6.28929329" style="line-height:1.25;-inkscape-font-specification:Aero" word-spacing="0"/><g fill="#fff" font-family="sans-serif" font-size="167.94311523" font-weight="400" letter-spacing="0" word-spacing="0"><path d="M62.367795 4.4255355c-.12909-.002-.26524.014-.40912.0443-.65073.13696-1.01636.48308-1.20218 1.13978-.0102.0351-.0185.0704-.0264.10437-.11919.51073-.0136.9084.35754 1.37614.20071.25289.32999.33196.73185.44991.72928.21406 1.35815.0125 1.78646-.57349.43671-.59761.35175-1.56871-.18117-2.0672-.33871-.31677-.66976-.46905-1.05699-.4739zm-.0828.19676c.11662.0114.25055.0407.40552.0875.47671.1444.71505.3502.90821.78344.21625.485.0307 1.25206-.39472 1.63287-.25906.23191-.87256.38027-1.22855.29754-.14843-.0344-.39947-.16076-.5579-.28074-.47275-.35808-.62666-.90544-.51469-1.40252.11214-.49705.49001-.9441 1.07858-1.10019.0877-.0232.18693-.0294.30354-.0181zm-.44991.74386c-.17258.0438-.27248.24682-.37433.69826l-.10799.47631.82665.18716c.68194.15386.83105.16582.85303.0683.0202-.0892-.0699-.1405-.36713-.20756-.21638-.0488-.38586-.1215-.37673-.16197.0514-.22795.29503-.44049.61188-.5351.1981-.0592.37109-.1542.38393-.21116.0128-.0569.002-.10937-.024-.11517-.0827-.0186-.61875.22119-.71386.31914-.071.0731-.11284.0314-.18476-.18236-.0706-.20998-.14979-.28984-.32754-.32994-.0765-.0174-.14163-.0202-.19915-.006zm.0383.26756c.0348.00036.0779.008.13437.0216.22578.0508.23289.0693.17517.43192l-.06.37911-.28435-.0635-.28315-.0635.10798-.36833c.0777-.26424.10564-.33826.20996-.33712zm-1.48772 2.14517c-.043-.007-.0756-.002-.10317.012-.11726.0598-.28889.74625-1.20817 4.8206595-1.04361 4.62551-1.06976 4.75523-.9526 4.94063.0662.10473.19728.22848.29034.27475.0931.0463 3.4157.80655 7.38455 1.68927 6.96895 1.54994 7.22313 1.60119 7.41574 1.4925.1983-.11187.20545-.13827 1.20937-4.5879.92639-4.10594 1.00022-4.48212.89022-4.5555-.0738-.0492-.47733.0112-1.04859.15836-1.3494.34749-1.23236.15843-1.97241 3.21417-.5705 2.35556-.61556 2.50074-.78345 2.57349-.13885.0602-.50685.003-1.67727-.26155-2.35884-.53268-2.33343-.4727-1.60169-3.72766.4752-2.11383.49331-2.2257.36593-2.33593-.16966-.14681-2.02811-.57069-2.32035-.52912l-.21955.0312-.5651 2.5099c-.71728 3.17919-.53533 2.95186-2.08999 2.60108-1.26684-.28583-1.50978-.42214-1.69286-.949-.11055-.31815-.0987-.39664.43311-2.93222.49159-2.3436295.53658-2.6296295.45112-2.8470595-.109-.27727-.24139-.38745-1.35814-1.11817-.49105-.32132-.71783-.45215-.84704-.47391zm-2.83503 12.6551195c-.0508-.006-.0876.006-.12718.0252-.0891.0453-.21653.49184-.73425 2.78225-.17228.76355-.38887 1.73201-.66107 2.95862-1.12401 5.06588-1.24693 5.68187-1.15178 5.77687.0784.0784.39368.0662 1.19977-.0454 1.19014-.1652 1.55859-.30275 1.75764-.65989.0747-.13408.53857-2.07 1.0942-4.56989l.9634-4.33713-.15237-.33117c-.1228-.26789-.29322-.42654-.88902-.82424-.86704-.57873-1.14669-.75626-1.29934-.77504zm2.38392 5.22017-.30114 1.33652-.30234 1.33776 5.74448 1.29694c5.6391 1.27228 5.74709 1.293 5.93644 1.17337.17309-.10937.21639-.22658.42351-1.14457.20712-.91799.21855-1.04226.10918-1.21537-.11962-.1894-.22655-.21662-5.86565-1.48891zm-5.33894 9.08941c-.10391.002-.2756.0574-.38033.12358-.16935.10701-.21463.2294-.41271 1.10739-.21279.94315-.21609.99758-.0732 1.22375l.14996.23635 7.31018 1.64968c7.27686 1.64181 7.31192 1.64909 7.5549 1.5333.24181-.11522.24651-.12567.47992-1.16018.21698-.96172.22454-1.0597.10318-1.23215-.12728-.18087-.37842-.2431-7.33776-1.83564-3.96339-.90696-7.29025-1.64792-7.39415-1.64608zm-1.66408 6.61191-.20996.17036c-.18408.14957-.23507.28025-.41032 1.05699-.17025.75461-.18361.91779-.0912 1.10498l.10919.21956 5.39173 1.23936c4.40755 1.01268 5.38814 1.2575 5.36895 1.34254-.0129.0571-.60221.23439-1.30895.39353-1.52623.34363-10.87827 3.06091-11.06182 3.21415-.0883.0737-.20497.45319-.38153 1.23576-.2469 1.09428-.2505 1.1372-.10557 1.36655l.14996.23634 7.31017 1.64969c7.27688 1.64181 7.31192 1.64908 7.55491 1.53329.24033-.1145.24712-.13151.46432-1.09418.19695-.87295.20837-.99879.0995-1.17097-.11947-.18911-.22764-.21661-5.47333-1.40013-4.80338-1.08375-5.34711-1.21996-5.32215-1.33054.0183-.0809.46959-.22522 1.31494-.42111 1.5884-.3681 10.79814-3.04569 10.97305-3.19019.0886-.0731.20674-.45742.38992-1.26934.23923-1.06033.25247-1.18261.14158-1.35813-.12013-.19017-.22716-.21702-7.51293-1.86084zm-3.51531 15.58015-.20996.17035c-.1852.15051-.23371.27835-.41752 1.093-.18379.81461-.19503.95191-.0924 1.16736l.11638.24475 7.39055 1.66647c7.28578 1.64384 7.39357 1.66664 7.5837 1.54651.1731-.10938.2164-.22658.42353-1.14457.20711-.91801.21854-1.04348.10918-1.21658-.12013-.19016-.22715-.21581-7.51293-1.85964zm-1.46131 5.64729c-.0528.006-.092.0319-.12358.0791-.0417.0625-.46396 1.8372-.93821 3.94362-.79828 3.54547-.85675 3.85544-.78944 4.17998.09.43369.38867.83926.76544 1.0378.19094.10056 2.56508.65728 7.13499 1.67366 6.60841 1.46973 6.85499 1.51952 7.04742 1.41093.18366-.10363.21854-.19605.43552-1.15777.3375-1.49584.60728-1.30307-2.95502-2.10679-2.79527-.63067-2.85057-.6468-2.96102-.84224-.1025-.18139-.0766-.37512.28914-2.16316l.40073-1.96282-.19556-.32155c-.27888-.45667-1.41053-1.3562-1.61489-1.28375-.13983.0495-.21206.30001-.77265 2.69708l-.61788 2.64189-1.79724-.40554c-1.73733-.39197-1.80449-.41327-2.024-.64426-.43736-.46023-.43358-.60761.0828-2.89624.57222-2.53696.58736-2.40956-.39232-3.24776-.5389-.46108-.816-.64745-.97421-.63227zm-2.70428 13.09304-.23634.14996c-.22373.14135-.24726.19821-.43912 1.04858-.17341.76859-.18745.93174-.0948 1.11939l.10798.21955 5.36895 1.25255c4.04512.94382 5.3631 1.2763 5.34734 1.34614-.0115.051-.67102.2501-1.4649.44271-2.15194.522113-10.66759 3.030813-10.84948 3.196183-.12248.11137-.21257.38635-.40311 1.23097-.23688 1.04988-.23914 1.09604-.0948 1.32453l.14877.23635 7.36057 1.66048c7.25571 1.637044 7.36358 1.659433 7.55371 1.53931.17218-.108786.21696-.227261.41392-1.10019.2172-.96266.21824-.98117.0503-1.18777-.16868-.20759-.22876-.22311-5.47213-1.40612-4.59692-1.03717-5.29666-1.21043-5.27415-1.31015.0159-.0706.541-.23431 1.35693-.42352 1.33855-.31039 10.56908-2.96603 10.87586-3.12899.14321-.076.19952-.24055.43191-1.275363.14676-.65339.24901-1.23374.22797-1.28853-.11542-.30037-.29919-.34885-7.62812-2.00241zm21.84172 10.526713c-.003.0102-.006.0191-.007.0288.0364.002.0769.003.11398.005-.0345-.0108-.0708-.0226-.10557-.0337zm-25.4218 5.03783-.19916.136764c-.17828.121667-.22249.237655-.41872 1.107389-.20924.927409-.21225.983578-.0695 1.209363l.14877.236353 7.34616 1.658074c7.28382 1.643377 7.34828 1.656252 7.55492 1.5357.19395-.113151.22454-.193713.44152-1.155373.19201-.851097.21489-1.063042.13436-1.205765-.0934-.165535-.42881-.248237-7.51772-1.847638z" style="line-height:1.25" transform="translate(-42.92443 -4.0644605) scale(1.06373)"/><path d="M61.559979 6.7907361c-.0032.0008349-.009.00334-.01172.00391.0014.00557.0024.012059.0039.017578.0057-.00225.01962-.00833.02734-.011719-.0071-.00351-.01245-.00616-.01953-.00977zm-1.304687.46875c-.043-.007-.07595-.00228-.103516.011719-.11726.0598-.289704.7478561-1.208984 4.8222659-1.04361 4.62551-1.068332 4.754053-.951172 4.939453.0662.10473.196002.229121.289062.275391.0931.0463 3.415916.806733 7.384766 1.689453 6.96895 1.54994 7.223406 1.600878 7.416016 1.492188.1983-.11187.205064-.138261 1.208984-4.587891.92639-4.10594 1.000625-4.481308.890625-4.554688-.0738-.0492-.477568.01104-1.048828.158204-1.3494.34749-1.232606.15715-1.972656 3.21289-.5705 2.35556-.615313 2.501469-.783203 2.574219-.13885.0602-.505362.0028-1.675782-.261719-2.35884-.53268-2.335255-.473556-1.603515-3.728516.4752-2.11383.494567-2.225707.367187-2.335937-.16966-.14681-2.028072-.568914-2.320312-.527344l-.220703.03125-.564453 2.509766c-.717281 3.17919-.535184 2.950389-2.089844 2.599609-1.26684-.28583-1.51028-.422359-1.69336-.949219-.11055-.31815-.09822-.39606.433594-2.93164.49159-2.3436303.536632-2.6302271.451172-2.8476571-.109-.27727-.240672-.3864675-1.357422-1.1171875-.49105-.32132-.718446-.4528491-.847656-.4746093zM57.419354 19.915737c-.0508-.006-.08737.0062-.126953.02539-.0891.0453-.216655.490839-.734375 2.781249-.17228.76355-.387956 1.732375-.660156 2.958985-1.12401 5.06588-1.247494 5.682344-1.152344 5.777344.0784.0784.393129.06473 1.199219-.04688 1.19014-.165199 1.558763-.301063 1.757813-.658203.0747-.13408.540073-2.070422 1.095703-4.570312l.96289-4.337891-.152343-.330078c-.1228-.26789-.292872-.426519-.888672-.824219-.86704-.578729-1.148132-.75661-1.300782-.77539zm2.384766 5.21875-.300781 1.33789-.302735 1.337891 5.744141 1.296875c5.6391 1.27228 5.74815 1.291505 5.9375 1.171875.17309-.10937.214755-.226541.421875-1.144531s.218745-1.041734.109375-1.214844c-.11962-.1894-.226134-.215991-5.865234-1.488281zm-5.339844 9.089843c-.10391.002-.274176.05882-.378906.125-.16935.10701-.215985.227479-.414062 1.105469-.21279.94315-.215148.99844-.07227 1.22461l.15039.236328 7.308594 1.65039c7.27686 1.64181 7.313661 1.648995 7.556641 1.533203.24181-.11522.245107-.125646.478515-1.160156.216983-.96172.224876-1.059972.103516-1.232422-.12728-.18087-.378551-.243397-7.33789-1.835937-3.96339-.90696-7.290632-1.648324-7.394532-1.646485zm-1.664062 6.613282-.208985.169922c-.18408.14957-.234906.2799-.410156 1.05664-.17025.75461-.184201.918279-.0918 1.105469l.109375.21875 5.392578 1.240234c4.40755 1.01268 5.386378 1.256757 5.367188 1.341797-.0129.0571-.601854.235391-1.308594.394532-1.52623.343628-10.876997 3.05965-11.060547 3.21289-.0883.0737-.206252.453758-.382812 1.236328-.2469 1.09428-.250399 1.137838-.105469 1.367188l.150391.236328 7.310546 1.648437c7.27688 1.64181 7.311698 1.648995 7.554688 1.533203.24033-.114499.247644-.131079.464844-1.09375.19695-.87295.208477-.999696.09961-1.171874-.11947-.18911-.228919-.214918-5.474609-1.398438-4.80338-1.08375-5.347226-1.221451-5.322266-1.332031.0183-.0809.471056-.224032 1.316406-.419922 1.5884-.3681 10.797747-3.046906 10.972657-3.191406.0886-.0731.205494-.457612.388671-1.269532.23923-1.06033.253469-1.181902.142579-1.357421-.12013-.190171-.227902-.217509-7.513672-1.861329zM49.286542 56.41769l-.210938.169922c-.1852.15051-.234158.277147-.417968 1.091797-.18379.81461-.194421.952518-.0918 1.167968l.117187.244141 7.390625 1.667969c7.28578 1.64384 7.391904 1.665052 7.582031 1.544922.1731-.10938.216699-.226542.423829-1.144532.20711-.91801.218735-1.041743.109375-1.214843-.12013-.19016-.225939-.217499-7.511719-1.861328zm-1.462891 5.646484c-.0528.006-.09147.03092-.123047.07813-.0417.0625-.46325 1.838893-.9375 3.945313-.79828 3.54547-.856372 3.855147-.789062 4.179687.09.43369.386902.83857.763672 1.03711.19094.10056 2.566808.657448 7.136718 1.673828 6.60841 1.46973 6.854445 1.518746 7.046876 1.410156.18366-.10363.218566-.19453.435546-1.15625.3375-1.49584.607222-1.303702-2.955078-2.107422-2.79527-.63067-2.850487-.646357-2.960937-.841797-.1025-.18139-.07668-.376022.289062-2.164062l.400391-1.962891-.195313-.320312c-.27888-.45667-1.410874-1.357607-1.615234-1.285157-.13983.0495-.212848.300196-.773437 2.697266l-.617188 2.642578-1.796875-.40625c-1.73733-.39197-1.803928-.413541-2.023437-.644531-.43736-.46023-.434347-.605901.08203-2.894531.57222-2.53696.587102-2.409847-.392578-3.248047-.5389-.46108-.8164-.647993-.97461-.632813zm-2.703125 13.09375-.236328.148438c-.22373.14135-.247593.198458-.439453 1.048828-.17341.76859-.188359.931492-.0957 1.11914l.109375.220704 5.369141 1.251953c4.045118.94382 5.361463 1.275863 5.345703 1.345703-.0115.051-.670964.250749-1.464844.443359-2.15194.52211-10.667722 3.029943-10.849609 3.195313-.122482.11137-.211804.387802-.402344 1.232422-.23688 1.04988-.23809 1.095728-.09375 1.324218l.148437.236328 7.359375 1.660157c7.25571 1.63704 7.364558 1.659182 7.554688 1.539062.17218-.10879.217102-.226679.414062-1.099609.2172-.96266.216764-.9809.04883-1.1875-.16868-.20759-.227333-.22324-5.470703-1.40625-4.59692-1.03717-5.2979-1.210827-5.27539-1.310547.0159-.0706.541492-.234618 1.357421-.423828 1.33855-.31039 10.570174-2.965946 10.876954-3.128906.14321-.076.19925-.240581.43164-1.275391.14676-.65339.247603-1.234274.226563-1.289062-.11542-.300371-.298023-.348394-7.626953-2.001954zm21.841797 10.525391c-.003.0102-.0068.0196-.0078.0293.0364.002.07815.0039.115234.0059-.0345-.0108-.07265-.02406-.107422-.03516zm-25.421875 5.039062-.199219.136719c-.17828.12167-.223692.237692-.419921 1.107422-.209241.92741-.21111.983194-.06836 1.208984l.148438.236328 7.345703 1.658204c7.28382 1.64338 7.348047 1.655716 7.554687 1.535156.19395-.11315.224427-.192637.441406-1.154297.192012-.8511.215296-1.064311.134766-1.207031-.0934-.16554-.428668-.248257-7.517578-1.847656z" style="line-height:1.25" transform="translate(-42.92443 -4.0644605) scale(1.06373)"/></g></svg>