<svg xmlns="http://www.w3.org/2000/svg" xml:space="preserve" viewBox="0 0 500 100">
  <path stroke="#fff" stroke-linecap="round" stroke-linejoin="round" stroke-width=".79440282" d="M35.2103021 23.36457334 23.11137103 58.6501968l-20.84573792.07197504 32.94466899-35.3575985M11.36567042 94.50701138 23.46460376 59.2213877l20.84572802-.07197505-32.94466136 35.35759873" fill="#ffffff"/>
  <path d="M59.019987 34.317948c.694905-3.300758 2.301848-5.993485 4.820849-8.07818 2.605853-2.084695 5.559159-3.127032 8.859918-3.127032 0 0 37.363266.0615 39.371426 0 2.00818-.06151 3.86978 1.377164 3.48137 3.310648-.38842 1.933502-2.3317 11.606918-2.3317 11.606918l-4.24514-5.004268-5.05191-.01094H87.163278L75.958086 85.132301h26.970654l-2.0847 9.902256H60.192625c-4.256224 0-7.426683-1.25949-9.511377-3.77849-1.997842-2.605854-2.519001-6.036912-1.563516-10.293155zm88.077983-1.302937-11.20519 52.117212h14.98368l11.20522-52.117212zm-28.14329 1.302937q1.04234-4.951147 4.82085-8.07818 3.90879-3.127032 8.85992-3.127032h47.94782q4.95115 0 7.29642 3.127032 2.47556 3.127033 1.43322 8.07818l-9.77198 46.644886q-1.43321 6.384364-6.12376 10.293154-4.69055 3.778491-10.94461 3.778491h-42.34524q-6.38436 0-9.5114-3.778491-2.99673-3.90879-1.56351-10.293154zm137.32877 60.716531h-27.62214l13.28989-62.019468h-14.98368l-13.28989 62.019468h-27.75241l13.33023-62.358418-6.58184-2.946134-.16861-6.714911 67.94782.09772c3.30076.0047 5.7329 1.042337 7.29642 3.127032 1.65037 2.084695 2.1281 4.777422 1.43322 8.07818zm28.40381 0c-4.25624 0-7.4267-1.25949-9.5114-3.778491-1.99782-2.605853-2.519-6.036911-1.56351-10.293154l10.16285-47.947823-11.41634-4.491395.0808-5.41088h13.42019l3.77849-17.9804359s18.87781.1182409 21.85176 0c2.97394-.118241 5.43712 2.2056913 4.84428 5.0268609-.59285 2.82115-2.72212 12.953575-2.72212 12.953575h10.53618c3.2612 0 2.97977.154671 2.4529 2.516421-.52686 2.361749-1.2469 5.589296-1.2469 5.589296l-13.34318.06911-11.55859 53.844662h13.55047l-2.0847 9.902256zm104.36453-62.019468h-26.97066l-13.28988 62.019468h-27.75242l12.89901-60.716531c.29363-1.394676-4.41865-4.505369-4.41865-4.505369l-.33704-6.626553s15.1357-.07526 18.43646-.07329l39.92423.02392c2.09487-.03092 3.34887 1.086468 3.01874 2.74655zm30.87936 0-11.20521 52.117212h14.9837l11.20522-52.117212zm-28.14329 1.302937q1.04234-4.951147 4.82083-8.07818 3.90879-3.127032 8.85994-3.127032h47.94782q4.95115 0 7.29642 3.127032 2.47556 3.127033 1.43322 8.07818l-9.77198 46.644886q-1.43321 6.384364-6.12376 10.293154-4.69055 3.778491-10.94462 3.778491H392.9605q-6.38437 0-9.5114-3.778491-2.99673-3.90879-1.56351-10.293154z" font-family="Aero" font-size="666.66668701" font-weight="400" letter-spacing="-20" style="line-height:1.25;-inkscape-font-specification:Aero" transform="translate(-.70710675)" word-spacing="0" fill="#ffffff"/>
  <g font-size="547.73303223" letter-spacing="0" word-spacing="0">
    <path d="m3601.6558 2837.0264 38.7369 7.8125-3.5807 21.4843h-127.9297l76.8229-433.2682-29.6224-7.8125 3.5808-21.4844h118.8151z" font-family="Liberation Serif" font-style="italic" font-weight="700" style="line-height:1.25;-inkscape-font-specification:'Liberation Serif Bold Italic'" transform="translate(-230.20211675 -465.15835) scale(.19544)" fill="#ffffff"/>
    <g style="line-height:1.25;-inkscape-font-specification:Raceline">
      <path d="m3656.4036 2836.9858 38.7369 7.8125-3.5807 21.4844h-127.9297l76.8229-433.2682-29.6224-7.8125 3.5808-21.4844h91.4635c29.2179-1.6586 25.1471 12.4332 22.7324 26.0515-2.4147 13.6184-72.2037 407.2167-72.2037 407.2167z" aria-label="l" font-family="Liberation Serif" font-style="italic" font-weight="700" style="-inkscape-font-specification:'Liberation Serif Bold Italic'" transform="translate(-230.20211675 -465.15835) scale(.19544)" fill="#ffffff"/>
    </g>
  </g>
</svg>